<svg xmlns="http://www.w3.org/2000/svg" viewBox="0 0 32 32" fill="none">
  <!-- Flame Body -->
  <path d="M16 2C11.5 7.5 6 12.5 6 18.5C6 24.5 10.5 29 16 29C21.5 29 26 24.5 26 18.5C26 12.5 20.5 7.5 16 2Z" fill="#ff6700"/>
  <!-- Inner Sensor Eye Background -->
  <path d="M16 23C18.2091 23 20 21.2091 20 19C20 16.7909 18.2091 15 16 15C13.7909 15 12 16.7909 12 19C12 21.2091 13.7909 23 16 23Z" fill="#112240"/>
  <!-- Inner Sensor Pupil -->
  <circle cx="16" cy="19" r="2" fill="#64ffda"/>
  <!-- Orbital Data Waves -->
  <path d="M3 18.5C3 11.3203 8.8203 5.5 16 5.5" stroke="#64ffda" stroke-width="2" stroke-linecap="round"/>
  <path d="M29 18.5C29 25.6797 23.1797 31.5 16 31.5" stroke="#64ffda" stroke-width="2" stroke-linecap="round"/>
</svg>